<?xml version="1.0" encoding="UTF-8"?>
<!-- Generated by Pixelmator Pro 3.7 -->
<svg width="30" height="30" viewBox="0 0 30 30" xmlns="http://www.w3.org/2000/svg">
    <g id="Group">
        <path id="Path" fill="#51c1e9" stroke="none" d="M 17.546215 16.566406 L 17.630484 16.314575 L 24.52323 15.531616 L 29.3564 13.958618 L 27.456295 8.09436 L 22.622221 9.667358 L 16.582119 13.092407 L 16.368277 12.936523 L 17.755526 6.127197 L 17.755526 1.037598 L 11.597629 1.037598 L 11.597629 6.127197 L 12.984878 12.936523 L 12.771942 13.092407 L 6.73184 9.667358 L 1.899577 8.09436 L -0.003245 13.958618 L 4.83083 15.531616 L 11.723577 16.314575 L 11.807845 16.566406 L 6.68744 21.258179 L 3.701822 25.37561 L 8.682687 29 L 11.671023 24.883545 L 14.544286 18.557129 L 14.809775 18.557129 L 17.682131 24.883545 L 20.671375 29 L 25.651333 25.37561 L 22.66662 21.258179 L 17.546215 16.566406 Z"/>
    </g>
</svg>
